HIERARCHY
ROOT pelvis
{
  OFFSET 0 100 0
  CHANNELS 6 Xposition Yposition Zposition Zrotation Xrotation Yrotation
  JOINT pelvis_right_femur
  {
    OFFSET -10.78128 -3.44521 -0.5502486
    CHANNELS 3 Zrotation Xrotation Yrotation
    JOINT right_femur_tibia
    {
      OFFSET -0.8047443 -44.0398 -0.1307829
      CHANNELS 3 Zrotation Xrotation Yrotation
      JOINT right_tibia_foot
      {
        OFFSET 3.006224 -47.83518 -5
        CHANNELS 3 Zrotation Xrotation Yrotation
        End Site
        {
          OFFSET 0 -5 15
        }
      }
    }
  }
  JOINT pelvis_left_femur
  {
    OFFSET 10.78128 -3.44521 -0.5502486
    CHANNELS 3 Zrotation Xrotation Yrotation
    JOINT left_femur_tibia
    {
      OFFSET 0.8047443 -44.0398 -0.1307829
      CHANNELS 3 Zrotation Xrotation Yrotation
      JOINT left_tibia_foot
      {
        OFFSET -4.370144 -48.10324 -4.275266
        CHANNELS 3 Zrotation Xrotation Yrotation
        End Site
        {
          OFFSET 0 -5 15
        }
      }
    }
  }
  JOINT pelvis_spine1
  {
    OFFSET 0 6.468898 -3.129235
    CHANNELS 3 Zrotation Xrotation Yrotation
    JOINT spine1
    {
      OFFSET 0 23.15396 4.99043
      CHANNELS 3 Zrotation Xrotation Yrotation
      JOINT spine2
      {
        OFFSET 0 20.79997 -5.064912
        CHANNELS 3 Zrotation Xrotation Yrotation
        JOINT neck
        {
          OFFSET 0 14.38658 9.616178
          CHANNELS 3 Zrotation Xrotation Yrotation
          End Site
          {
            OFFSET 0 20 0
          }
        }
      }
      JOINT right_manubrium
      {
        OFFSET -5.722621 16.35077 3.967754
        CHANNELS 3 Zrotation Xrotation Yrotation
        JOINT right_clavicle
        {
          OFFSET -13.16364 1.694482 -4.693211
          CHANNELS 3 Zrotation Xrotation Yrotation
          JOINT right_humerus
          {
            OFFSET -28.5034 -0.3100689 -2.792744
            CHANNELS 3 Zrotation Xrotation Yrotation
            JOINT right_radius
            {
              OFFSET -25.15693 0.02248979 -1.271978
              CHANNELS 3 Zrotation Xrotation Yrotation
              End Site
              {
                OFFSET -15 0 0
              }
            }
          }
        }
      }
      JOINT left_manubrium
      {
        OFFSET 5.722621 16.35077 3.967754
        CHANNELS 3 Zrotation Xrotation Yrotation
        JOINT left_clavicle
        {
          OFFSET 13.16364 1.694482 -4.693211
          CHANNELS 3 Zrotation Xrotation Yrotation
          JOINT left_humerus
          {
            OFFSET 29.39168 -1.063119 -2.237045
            CHANNELS 3 Zrotation Xrotation Yrotation
            JOINT left_radius
            {
              OFFSET 24.59957 -0.9528479 0.9047498
              CHANNELS 3 Zrotation Xrotation Yrotation
              End Site
              {
                OFFSET 15 -0 -0
              }
            }
          }
        }
      }
    }
  }
}
MOTION
Frames: 15
Frame Time: 0.0416666666667
0 103.5113 0 1.540351 -2.973424 0.2052199 1.225755 -10.4652 6.780485 -0 40.36054 -0 -6.776557 -16.66115 -4.045353 -6.880695 12.14816 -24.11209 -0 5.620641 -0 -0.2855119 -19.12351 23.00792 -0.2504033 -1.865557 4.517125 -0.6338977 7.508447 -7.001146 1.658577 22.07117 8.454969 5.590785 -21.47728 8.898274 5.599684 -18.62604 9.992625 90.00145 36.02678 -24.69715 -0 0 17.35478 -8.475574 9.353905 2.530293 6.96965 -21.55538 -2.937857 -99.79292 41.76767 28.26105 0 0 -26.49152 -10.46674 16.8886 29.98305
0.136722 103.6171 1.137833 1.174081 -2.13458 0.2893356 1.67744 -12.15937 7.591962 -0 40.9564 -0 -6.85527 -17.38128 -4.805537 -6.650073 12.17939 -24.38972 -0 5.844109 -0 -1.668172 -20.29111 22.61767 0.01813927 -1.800825 4.764384 -0.8456097 7.599979 -6.953574 1.692491 22.01898 8.503345 5.677156 -21.43014 8.919872 5.566585 -18.61435 9.8971 90.19561 36.40594 -24.81067 -0 0 17.19524 -8.664415 9.819409 2.32064 7.255116 -21.90207 -2.788142 -99.77739 41.69656 28.26114 0 0 -26.89133 -9.961544 17.15377 29.76118
0.2758914 103.4979 2.604115 0.4308964 -1.152519 0.3323483 3.094784 -18.19805 7.018833 -0 37.19375 -0 -6.723598 -14.79726 -4.211248 -6.0999 12.40358 -23.48552 -0 5.763472 -0 -0.8617719 -21.7158 22.16279 -0.053716 -1.315188 4.231068 0.1196196 7.43923 -7.262177 1.509073 21.90193 8.428417 5.409695 -22.47803 8.869808 5.79648 -17.89866 10.26435 89.26053 36.09655 -24.15043 -0 0 15.716 -8.607453 10.03081 3.103188 6.867081 -21.36848 -2.740104 -98.2973 40.33557 26.39145 0 0 -26.03122 -8.451413 16.84868 27.31726
0.4105565 103.211 4.358378 -0.175308 -0.2643733 0.3875743 4.217637 -22.85054 6.921218 -0 34.24821 -0 -6.568414 -12.79596 -4.015286 -5.621724 12.65992 -22.81371 -0 5.889766 -0 -0.9708415 -23.07561 21.45814 -0.01116176 -1.05912 3.994858 0.56945 7.394597 -7.426351 1.429263 21.79308 8.413541 5.30977 -23.00588 8.857545 5.925424 -17.51459 10.43345 88.85642 35.93429 -23.91758 -0 0 14.93011 -8.556229 10.20746 3.429694 6.761699 -21.19661 -2.696524 -97.53332 39.5827 25.39321 0 0 -25.74161 -7.543855 16.68916 25.98339
0.5522337 102.7112 6.536558 -0.7177779 0.6227482 0.4724675 5.31884 -27.55174 6.63077 -0 30.32699 -0 -6.3406 -10.20463 -3.61272 -5.194794 13.05692 -21.87449 -0 6.131988 -0 -0.8359184 -24.2421 20.59123 -0.01638931 -0.819319 3.729005 1.039724 7.33873 -7.596697 1.339907 21.68628 8.394719 5.20162 -23.51895 8.828659 6.044113 -17.13679 10.61362 88.4393 35.72637 -23.66308 -0 0 14.17363 -8.534674 10.3299 3.815253 6.620219 -20.99556 -2.665381 -96.75715 38.79068 24.38472 0 0 -25.40572 -6.716268 16.45703 24.68539
0.6987895 102.0152 9.20847 -1.173656 1.531472 0.6161967 6.267035 -31.60809 6.30929 -0 26.16488 -0 -6.123849 -7.570547 -3.256661 -4.844586 13.5796 -20.84068 -0 6.623361 -0 -1.099268 -25.22965 19.41641 -0.03109727 -0.6380544 3.515701 1.408036 7.295916 -7.733026 1.267125 21.59741 8.381203 5.118508 -23.90905 8.798346 6.13096 -16.84259 10.75599 88.12126 35.54933 -23.46779 -0 0 13.58922 -8.53844 10.4159 4.136162 6.50713 -20.84349 -2.642297 -96.14231 38.14023 23.58564 0 0 -25.14621 -6.0858 16.24183 23.67601
0.846143 101.1691 12.4565 -1.523575 2.485159 0.8512089 7.002469 -34.75456 5.839885 -0 21.84518 -0 -5.973896 -5.029197 -2.901456 -4.623741 14.23619 -19.6553 -0 7.547248 -0 -1.625704 -25.77457 17.95752 -0.08388263 -0.490024 3.326052 1.733706 7.253753 -7.847864 1.194282 21.53532 8.357886 5.03324 -24.22304 8.74781 6.187818 -16.59976 10.8865 87.8327 35.40494 -23.25091 -0 0 13.09502 -8.612348 10.47551 4.476838 6.373701 -20.69404 -2.626571 -95.5917 37.53706 22.89463 0 0 -24.87185 -5.591039 16.01785 22.8287
0.9856984 100.2709 16.34046 -1.799477 3.479559 1.205148 7.51016 -36.6163 5.259725 -0 17.8679 -0 -5.951386 -2.893316 -2.628333 -4.518609 14.97461 -18.35028 -0 9.203827 -0 -2.646929 -25.6686 16.1554 -0.1780474 -0.3755213 3.170359 2.010375 7.2157 -7.93549 1.121407 21.50925 8.318722 4.941417 -24.45099 8.671756 6.211142 -16.41567 11.00448 87.57022 35.31318 -22.99562 -0 0 12.69322 -8.775626 10.51718 4.842433 6.213496 -20.54613 -2.618953 -95.10834 36.98633 22.3264 0 0 -24.5711 -5.234107 15.7976 22.15321
1.107709 99.46946 20.89192 -2.056808 4.411415 1.683143 7.844878 -36.83956 4.636876 -0 14.86457 -0 -6.122062 -1.469817 -2.462358 -4.477962 15.65442 -16.95772 -0 12.0664 -0 -4.169434 -24.54569 14.08403 -0.324774 -0.2907604 3.055135 2.242456 7.184331 -7.991946 1.044603 21.52923 8.255193 4.833558 -24.58933 8.559631 6.196599 -16.2924 11.1147 87.31381 35.29572 -22.66302 -0 0 12.37058 -9.068806 10.55572 5.261297 6.010667 -20.39194 -2.618318 -94.67255 36.46159 21.87332 0 0 -24.2122 -4.999243 15.58214 21.62744
1.207059 98.94327 26.0929 -2.376961 5.048553 2.243542 8.137586 -35.23631 4.125018 -0 13.47772 -0 -6.502754 -1.000591 -2.428805 -4.367546 15.98277 -15.56731 -0 16.72054 -0 -6.175899 -22.09624 11.89973 -0.5290191 -0.2362928 2.997201 2.420442 7.165477 -8.008271 0.96359 21.60398 8.162758 4.706093 -24.62474 8.405837 6.139679 -16.24019 11.21635 87.04931 35.38043 -22.219 -0 0 12.13136 -9.535 10.61392 5.747392 5.760552 -20.23392 -2.620054 -94.28398 35.95061 21.55108 0 0 -23.77705 -4.873534 15.38181 21.2479
1.293512 98.84978 31.84643 -2.788631 5.039335 2.7672 8.473522 -31.89195 3.845495 -0 13.95635 -0 -7.030559 -1.586516 -2.499226 -4.033381 15.46749 -14.31863 -0 23.6842 -0 -8.420726 -18.22578 9.915101 -0.7902655 -0.2118562 3.019435 2.529689 7.165912 -7.972615 0.8793682 21.73768 8.041853 4.559983 -24.54447 8.209183 6.036611 -16.27066 11.30682 86.75451 35.59822 -21.62074 -0 0 11.98506 -10.22947 10.72888 6.313967 5.467189 -20.08054 -2.612625 -93.94451 35.43344 21.37883 0 0 -23.25174 -4.828939 15.20891 21.00082
1.397309 99.25765 37.95126 -3.176101 4.112283 3.062278 8.739543 -27.21498 3.774764 -0 15.65952 -0 -7.528054 -3.123048 -2.589712 -3.441417 13.49178 -13.33271 -0 32.94131 -0 -10.48423 -13.37683 8.484158 -1.096277 -0.2143556 3.148247 2.551432 7.192024 -7.871496 0.7950776 21.9241 7.901472 4.403877 -24.34253 7.97695 5.886552 -16.39359 11.38172 86.39741 35.97235 -20.82157 -0 0 11.94799 -11.21025 10.95041 6.969963 5.149039 -19.94677 -2.57626 -93.65831 34.88273 21.37495 0 0 -22.63393 -4.817351 15.07496 20.85507
1.553826 100.1075 44.12836 -3.26944 2.383751 2.966015 8.626104 -21.79723 3.720697 -0 17.07703 -0 -7.777009 -5.243177 -2.570114 -2.821485 9.611904 -12.53834 -0 43.46441 -0 -11.8238 -8.593656 7.847365 -1.421287 -0.2344177 3.404216 2.471934 7.248489 -7.694502 0.7149934 22.1418 7.758614 4.252734 -24.02933 7.724749 5.694217 -16.60974 11.43871 85.93434 36.49801 -19.7773 -0 0 12.03667 -12.52224 11.32774 7.724537 4.836735 -19.84709 -2.487135 -93.4219 34.25653 21.53982 0 0 -21.93203 -4.767498 14.97885 20.74649
1.771861 101.2414 50.13181 -2.808615 0.4354362 2.498202 7.892178 -16.15306 3.469584 -0 16.78181 -0 -7.651012 -7.293545 -2.344719 -2.529692 3.964018 -11.5962 -0 53.24876 -0 -11.97921 -5.071079 8.046397 -1.732381 -0.2579083 3.790975 2.291324 7.338374 -7.439157 0.643616 22.35729 7.631645 4.121846 -23.63296 7.472384 5.471456 -16.90867 11.48123 85.31909 37.12159 -18.46181 -0 0 12.26633 -14.17023 11.87986 8.587224 4.561899 -19.78327 -2.329852 -93.22287 33.50774 21.84997 0 0 -21.15788 -4.605069 14.8966 20.5869
2.021754 102.4678 55.85637 -1.768843 -1.112174 1.852773 6.654046 -10.55198 2.989531 -0 14.56035 -0 -7.189583 -8.630123 -1.953443 -2.637593 -2.67371 -10.15196 -0 60.09831 -0 -10.8781 -3.431966 9.01944 -2.004978 -0.2734825 4.290116 2.025716 7.463175 -7.111983 0.5850192 22.5384 7.530782 4.018761 -23.18777 7.237319 5.235046 -17.2756 11.51865 84.52108 37.74194 -16.88152 -0 0 12.65587 -16.10174 12.57012 9.561738 4.340481 -19.73406 -2.11007 -93.05146 32.6102 22.27354 0 0 -20.31393 -4.293009 14.78378 20.30548
